# xmcd
#
# Track frame offsets: 
#        150
#        13290
#        23393
#        37410
#        48643
#        67096
#        81123
#        91794
#        107784
#        120583
#
# Disc length: 1830 seconds
#
# Revision: 3
# Processed by: cddbd v1.5.2PL0 Copyright (c) Steve Scherf et al.
# Submitted via: ExactAudioCopyFreeDBPlugin 1.0
#
DISCID=8107240a
DTITLE=Billie Jo Spears - Only The Hits
DYEAR=1989
DGENRE=Country
TTITLE0=What The World Needs Now
TTITLE1=Snowbird
TTITLE2=Lay Down Beside Me
TTITLE3=Broken Lady
TTITLE4=Everything Is Beautiful
TTITLE5=Desperado
TTITLE6=Your Good Girls Gonna Go Bad
TTITLE7=I Fall To Pieces
TTITLE8=Rose Garden
TTITLE9=Bridge Over Troubled Waters
EXTD=
EXTT0=
EXTT1=
EXTT2=
EXTT3=
EXTT4=
EXTT5=
EXTT6=
EXTT7=
EXTT8=
EXTT9=
PLAYORDER=
